<svg viewBox="130 130 420 420" xmlns="http://www.w3.org/2000/svg">
  <g stroke="#e11d48" stroke-width="20" fill="none" stroke-linejoin="round" stroke-linecap="round">
    <line x1="340" y1="340" x2="550" y2="340"/>
    <line x1="340" y1="340" x2="489" y2="489"/>
    <line x1="340" y1="340" x2="340" y2="550"/>
    <line x1="340" y1="340" x2="191" y2="489"/>
    <line x1="340" y1="340" x2="130" y2="340"/>
    <line x1="340" y1="340" x2="191" y2="191"/>
    <line x1="340" y1="340" x2="340" y2="130"/>
    <line x1="340" y1="340" x2="489" y2="191"/>
    <path d="M 450,340 Q 420,365 418,418 Q 365,420 340,450 Q 315,420 262,418 Q 260,365 230,340 Q 260,315 262,262 Q 315,260 340,230 Q 365,260 418,262 Q 420,315 450,340"/>
    <path d="M 538,340 Q 472,395 480,480 Q 395,472 340,538 Q 285,472 200,480 Q 208,395 142,340 Q 208,285 200,200 Q 285,208 340,142 Q 395,208 480,200 Q 472,285 538,340"/>
  </g>
</svg>
